<?xml version="1.0" encoding="iso-8859-1"?>
<!-- Generator: Adobe Illustrator 19.0.0, SVG Export Plug-In . SVG Version: 6.00 Build 0)  -->
<svg version="1.1" id="Capa_1" xmlns="http://www.w3.org/2000/svg" xmlns:xlink="http://www.w3.org/1999/xlink" x="0px" y="0px"
	 viewBox="0 0 512.001 512.001" style="enable-background:new 0 0 512.001 512.001;" xml:space="preserve">
<g>
	<g>
		<path d="M507.495,156.744l-86.5-84.691c-20.143-19.722-46.76-30.583-74.951-30.583h-7.406c-0.773-0.634-1.621-1.201-2.541-1.685
			l-22.649-11.923c-7.331-3.858-16.402-1.044-20.261,6.286c-1.231,2.339-1.776,4.854-1.719,7.321h-70.935
			c0.057-2.467-0.488-4.983-1.719-7.321c-3.859-7.331-12.93-10.146-20.261-6.286l-22.649,11.923
			c-0.919,0.484-1.767,1.05-2.541,1.685h-7.406c-28.19,0-54.808,10.861-74.951,30.583l-86.5,84.691
			c-5.769,5.649-6.032,14.851-0.595,20.819l56.56,62.091c5.262,5.779,14.082,6.546,20.266,1.764l35.088-27.14l3.59,256.801
			c0.115,8.202,6.796,14.791,14.999,14.791h243.173c8.203,0,14.884-6.588,14.999-14.791l3.59-256.801l35.088,27.14
			c6.183,4.783,15.003,4.015,20.266-1.764l56.56-62.091C513.527,171.595,513.264,162.393,507.495,156.744z M84.06,200.923
			l-10.729,8.299l-37.497-41.164L84.06,120.84V200.923z M190.728,455.869h-41.521l-3.803-272.041
			c-0.08-5.684-3.364-10.834-8.484-13.302c-5.119-2.467-11.195-1.831-15.691,1.647l-7.169,5.545V91.562
			c14.234-12.969,32.546-20.093,51.898-20.093h24.77V455.869z M289.561,71.47c-4.394,14.271-17.774,24.682-33.56,24.682
			c-15.773,0-29.145-10.408-33.549-24.682H289.561z M291.275,455.87h-70.548V115.754c10.172,6.569,22.28,10.398,35.274,10.398
			c12.994,0,25.102-3.826,35.274-10.389V455.87z M397.943,177.718l-7.168-5.544c-4.497-3.478-10.571-4.116-15.691-1.647
			c-5.121,2.468-8.406,7.618-8.485,13.302l-3.803,272.041h-41.521V71.47h24.77c19.352,0,37.664,7.123,51.898,20.093V177.718z
			 M438.672,209.221l-10.729-8.298V120.84l48.226,47.217L438.672,209.221z"/>
	</g>
</g>
<g>
</g>
<g>
</g>
<g>
</g>
<g>
</g>
<g>
</g>
<g>
</g>
<g>
</g>
<g>
</g>
<g>
</g>
<g>
</g>
<g>
</g>
<g>
</g>
<g>
</g>
<g>
</g>
<g>
</g>
</svg>
